<svg viewBox="0 0 260 260" xmlns="http://www.w3.org/2000/svg" font-family="-apple-system,Segoe UI,Arial,sans-serif">
  <rect x="1" y="1" width="258" height="258" rx="20" fill="#fbfbfa" stroke="#e6e4de" stroke-width="2"/>
  <defs>
    <marker id="arrowhead" markerWidth="8" markerHeight="8" refX="5.5" refY="3" orient="auto">
      <path d="M0,0 L6,3 L0,6 Z" fill="#b7b4ac"/>
    </marker>
  </defs>
  <path d="M150.0,100.0 Q122.0,150.0 150.0,200.0" fill="none" stroke="#b7b4ac" stroke-width="2.5" marker-end="url(#arrowhead)"/>
  <path d="M150.0,200.0 Q140.6,181.6 120.0,180.0" fill="none" stroke="#b7b4ac" stroke-width="2.5" marker-end="url(#arrowhead)"/>
  <path d="M120.0,180.0 Q142.4,140.0 120.0,100.0" fill="none" stroke="#b7b4ac" stroke-width="2.5" marker-end="url(#arrowhead)"/>
  <g transform="translate(150,100) rotate(0)">
    <g transform="translate(-16.0,-28.0) scale(0.32,0.56)">
      <path d="M50,4 C66,4 75,19 74,37 C73,50 69,61 63,77 C59,89 56,97 50,97 C44,97 41,89 37,77 C31,61 27,50 26,37 C25,19 34,4 50,4 Z" fill="#3a5ceb" stroke="#ffffff" stroke-width="2.5"/>
    </g>
    <text x="0" y="5" text-anchor="middle" font-size="14" font-weight="700" fill="#ffffff" transform="rotate(0)">R</text>
  </g>
  <g transform="translate(150,200) rotate(0)">
    <g transform="translate(-16.0,-28.0) scale(0.32,0.56)">
      <path d="M50,4 C66,4 75,19 74,37 C73,50 69,61 63,77 C59,89 56,97 50,97 C44,97 41,89 37,77 C31,61 27,50 26,37 C25,19 34,4 50,4 Z" fill="#e08a3e" stroke="#ffffff" stroke-width="2.5"/>
    </g>
    <text x="0" y="5" text-anchor="middle" font-size="14" font-weight="700" fill="#ffffff" transform="rotate(0)">L</text>
  </g>
  <g transform="translate(120,180) rotate(0)">
    <g transform="translate(-16.0,-28.0) scale(0.32,0.56)">
      <path d="M50,4 C66,4 75,19 74,37 C73,50 69,61 63,77 C59,89 56,97 50,97 C44,97 41,89 37,77 C31,61 27,50 26,37 C25,19 34,4 50,4 Z" fill="#e08a3e" stroke="#ffffff" stroke-width="2.5"/>
    </g>
    <text x="0" y="5" text-anchor="middle" font-size="14" font-weight="700" fill="#ffffff" transform="rotate(0)">L</text>
  </g>
  <g transform="translate(120,100) rotate(0)">
    <g transform="translate(-16.0,-28.0) scale(0.32,0.56)">
      <path d="M50,4 C66,4 75,19 74,37 C73,50 69,61 63,77 C59,89 56,97 50,97 C44,97 41,89 37,77 C31,61 27,50 26,37 C25,19 34,4 50,4 Z" fill="#3a5ceb" stroke="#ffffff" stroke-width="2.5"/>
    </g>
    <text x="0" y="5" text-anchor="middle" font-size="14" font-weight="700" fill="#ffffff" transform="rotate(0)">R</text>
  </g>
  <circle cx="164.94145551743813" cy="55.175633447685584" r="11.5" fill="#17181a"/>
  <text x="164.94145551743813" y="59.675633447685584" text-anchor="middle" font-size="12" font-weight="700" fill="#ffffff">1</text>
  <circle cx="162.4320424611202" cy="244" r="11.5" fill="#17181a"/>
  <text x="162.4320424611202" y="248.5" text-anchor="middle" font-size="12" font-weight="700" fill="#ffffff">2</text>
  <circle cx="101.3876948526156" cy="223.42871201056363" r="11.5" fill="#17181a"/>
  <text x="101.3876948526156" y="227.92871201056363" text-anchor="middle" font-size="12" font-weight="700" fill="#ffffff">3</text>
  <circle cx="105.05854448256186" cy="55.175633447685584" r="11.5" fill="#17181a"/>
  <text x="105.05854448256186" y="59.675633447685584" text-anchor="middle" font-size="12" font-weight="700" fill="#ffffff">4</text>
</svg>